# xmcd CD database file
#
# Track frame offsets:
#	150
#	16463
#	35490
#	53850
#	67130
#	82134
#	97258
#	110887
#	127588
#	143907
#	160159
#	175867
#	189877
#	211355
#	229819
#	244493
#	259127
#	273494
#	289392
#	305420
#
# Disc length: 4260 seconds
#
# Revision: 0
# Processed by: cddbd v1.5.2PL0 Copyright (c) Steve Scherf et al.
# Submitted via: CDex 1.51
#
DISCID=3310a214
DTITLE=Forrozão Chacal - O Rei do Cabaré
DYEAR=2006
DGENRE=Country
TTITLE0=Rei do Cabaré
TTITLE1=Americana quer Beber
TTITLE2=Tremendo Vacilão
TTITLE3=Eu não quero me amarrar
TTITLE4=Querem nos separar
TTITLE5=Nega boa do carai
TTITLE6=Raparigueiro Fino
TTITLE7=Bebendo no Cabaré
TTITLE8=Não devo nada a Ninguém
TTITLE9=Pode Chorar
TTITLE10=Piri Piri
TTITLE11=Cano de Ferro
TTITLE12=Quero Ficar
TTITLE13=Malandrinha
TTITLE14=Balança mas não cai
TTITLE15=Quem você pensa que é
TTITLE16=Volte amor
TTITLE17=Nossa História
TTITLE18=Depois da meia noite
TTITLE19=Apaixonados
EXTD=YEAR: 2006
EXTT0=
EXTT1=
EXTT2=
EXTT3=
EXTT4=
EXTT5=
EXTT6=
EXTT7=
EXTT8=
EXTT9=
EXTT10=
EXTT11=
EXTT12=
EXTT13=
EXTT14=
EXTT15=
EXTT16=
EXTT17=
EXTT18=
EXTT19=
PLAYORDER=
